<?xml version="1.0" encoding="utf-8" ?><svg xmlns="http://www.w3.org/2000/svg" xmlns:xlink="http://www.w3.org/1999/xlink" width="1024" height="1024" viewBox="0 0 1024 1024"><path d="M0 0L1024 0L1024 1024L0 1024L0 0Z"/><path fill="#F7F7F6" d="M723.474 266.041L723.415 235.092C723.395 220.603 721.315 204.168 741.329 203.097C749.723 202.648 757.907 211.834 763.346 217.273C778.613 232.54 794.048 247.656 809.185 263.048C826.537 280.692 823.312 302.703 823.344 325.262L823.424 391.731L823.258 511.385L823.304 555.285C823.32 570.088 826.273 589.54 814.285 599.779C810.871 602.695 806.355 604.987 801.783 605.423C790.544 606.251 778.584 605.868 767.262 605.816C747.988 605.692 728.713 605.689 709.438 605.807C678.301 605.968 647.164 605.963 616.027 605.792L586.326 605.846C573.448 605.883 560.576 607.686 551.165 596.754C542.752 586.981 544.918 570.945 544.937 558.706L545.006 516.011L544.946 380.168C512.857 394.348 482.198 422.835 474.574 458.638C472.758 467.164 475.778 477.267 465.417 481.69C462.322 483.004 458.829 483.025 455.718 481.748C452.164 480.272 449.385 477.383 448.048 473.774C447.299 471.699 447.108 469.587 447.143 467.394C448.554 463.961 448.882 457.497 449.852 453.561C452.407 443.203 456.067 432.541 460.875 423C462.025 420.717 467.691 412.002 467.385 410.696C469.992 408.915 477.457 397.492 480.329 394.05C485.936 387.417 492.109 381.283 498.777 375.718C508.474 367.557 519.226 360.738 530.742 355.445C533.441 354.214 543.51 350.508 544.943 349.514L545.218 347.589C544.789 338.057 544.994 327.645 544.992 318.026L545.015 267.518L544.935 237.217C544.858 222.404 542.316 205.239 562.395 203.509C570.113 202.845 576.312 208.843 581.39 213.856C594.988 227.279 608.454 240.869 622.055 254.293C625.932 258.119 630.427 262.126 634.013 266.113L634.058 237.793C634.068 232.234 634.258 226.871 634.329 221.035C634.505 206.595 649.94 198.641 661.829 206.192C667.631 209.877 675.788 219.194 681.136 224.571C690.181 233.616 699.292 242.593 708.469 251.503C713.033 255.963 718.787 261.923 723.474 266.041Z"/><path fill="#3D62F1" d="M620.519 341.215C610.706 332.362 599.77 321.701 591.109 311.582C582.409 301.416 596.481 287.209 607.029 295.113C613.519 300.092 619.779 307.883 625.794 313.833C634.306 322.091 642.723 330.446 651.044 338.896C653.914 341.806 658.102 345.62 660.572 348.66C668.714 358.682 653.905 369.161 647.579 375.38L626.078 396.692C620.26 402.41 610.888 412.985 604.344 416.958C600.391 417.064 595.168 417.208 592.336 414.088C583.722 404.598 592.07 396.715 598.524 390.167C605.508 383.082 613.316 376.21 619.397 368.873C585.674 368.681 576.955 369.081 544.946 380.168C512.857 394.348 482.198 422.835 474.574 458.638C472.758 467.164 475.778 477.267 465.417 481.69C462.322 483.004 458.829 483.025 455.718 481.748C452.164 480.272 449.385 477.383 448.048 473.774C447.299 471.699 447.108 469.587 447.143 467.394C448.554 463.961 448.882 457.497 449.852 453.561C452.407 443.203 456.067 432.541 460.875 423C462.025 420.717 467.691 412.002 467.385 410.696C469.992 408.915 477.457 397.492 480.329 394.05C485.936 387.417 492.109 381.283 498.777 375.718C508.474 367.557 519.226 360.738 530.742 355.445C533.441 354.214 543.51 350.508 544.943 349.514L545.218 347.589L545.699 348.999C548.329 349.335 558.575 345.945 562.004 345.125C581.388 340.494 600.719 341.569 620.519 341.215Z"/><path fill="#3D62F1" d="M588.453 444.59C598.69 443.945 612.572 444.309 623.098 444.319L685.877 444.419L745.537 444.313C755.778 444.292 769.224 443.901 779.241 444.565C783.084 446.913 785.431 449.529 785.45 454.25C785.578 486.08 785.519 517.925 785.538 549.756C785.543 558.359 786.371 560.905 778.48 565.976C761.565 566.519 740.451 565.802 723.106 565.843L634.618 566.006C622.267 566.044 609.897 566.061 597.539 566.082C587.774 566.333 581.976 565.049 581.885 553.831C581.638 521.234 581.866 488.617 581.664 456.019C581.629 450.334 583.307 446.788 588.453 444.59Z"/><path fill="#F7F7F6" d="M708.463 468.715C721.93 467.368 741.184 468.913 750.788 479.468C765.006 495.094 763.68 522.393 746.473 535.214C732.26 544.626 717.274 542.445 701.528 541.316L701.547 469.125L708.463 468.715Z"/><path fill="#3D62F1" d="M712.491 478.775C721.985 478.829 732.533 478.499 740.25 484.992C748.061 491.565 750.338 502.09 748.462 511.77C747.415 517.174 745.369 520.236 741.957 524.277C741.229 524.915 740.488 525.537 739.733 526.144C731.927 532.379 721.886 532.065 712.507 530.979C712.306 513.712 712.493 496.073 712.491 478.775Z"/><path fill="#F7F7F6" d="M669.327 469.084L684.32 469.023C684.204 492.979 684.478 517.452 684.108 541.338L672.842 541.325C672.546 530.349 672.427 519.368 672.483 508.388L672.44 490.369C665.499 507.299 659.081 524.47 652.274 541.491L642.599 541.468C635.598 524.576 627.903 506.512 621.498 489.484C622.363 505.993 621.859 524.795 621.746 541.517L610.7 541.498C610.453 517.403 610.462 493.307 610.727 469.212C615.828 469.17 620.929 469.24 626.026 469.42C632.657 486.98 641.119 507.841 646.766 525.54C649.153 519.189 652.183 512.669 654.74 506.306L669.327 469.084Z"/><path fill="#3D62F1" d="M220.409 198.609C221.52 198.528 222.634 198.475 223.748 198.452C242.488 198.127 262.006 198.424 280.833 198.439L380.346 198.432L427.913 198.417C436.106 198.391 446.646 197.748 454.418 198.765C467.589 200.489 473.83 213.593 473.127 225.643C472.777 231.631 473.113 238.7 473.116 244.615L473.133 300.527C457.657 311.258 449.519 315.659 431.103 321.25C400.134 329.562 372.834 326.745 343.627 313.924C331.078 308.416 322.257 303.064 308.749 299.072C269.725 287.537 236.082 294.122 201.12 312.567L201.309 252.541C201.339 241.219 201.04 229.258 201.854 217.997C202.59 207.807 210.681 200.801 220.409 198.609Z"/><path fill="#F7F7F6" d="M332.763 218.546C339.212 218.482 355.588 217.72 361.991 219.216C362.504 219.335 362.695 221.446 362.727 221.879C363.19 228.081 364.172 287.04 362.352 289.468C358.073 291.153 338.826 290.362 333.332 290.138C331.378 287.25 329.947 281.8 326.979 277.867C319.855 268.43 307.445 271.787 303.401 268.828C301.952 265.691 301.851 242.887 303.594 239.072C305.782 234.284 314.488 238.442 319.11 236.197C327.481 232.132 329.664 226.142 332.763 218.546Z"/><path fill="#3D62F1" d="M342.605 238.875C351.087 236.81 359.64 241.998 361.728 250.474C363.817 258.95 358.652 267.517 350.182 269.629C341.679 271.748 333.071 266.56 330.975 258.051C328.878 249.542 334.091 240.949 342.605 238.875Z"/><path fill="#F7F7F6" d="M263.321 471.215C280.431 470.237 309.729 475.914 324.155 484.702C373.147 514.546 422.815 511.577 472.961 483.521L472.971 531.862C455.489 543.992 435.41 551.859 414.341 554.833C361.186 561.103 350.385 541.093 306.657 526.8C268.818 514.431 236.127 520.379 201.466 538.045L201.465 493.746C220.634 479.607 239.468 472.562 263.321 471.215Z"/><path fill="#F7F7F6" d="M259.8 320.697C280.354 318.758 302.042 322.747 320.62 331.739C339.27 340.874 357.362 349.806 378.32 352.094C413.276 355.91 442.483 349.634 472.938 332.05L473.035 376.266C456.021 388.524 438.238 395.581 417.904 399.847C397.366 403.645 372.9 402.347 353.753 393.828C339.281 387.39 327.158 380.995 312.081 375.641C286.487 366.553 257.242 365.906 231.232 373.649C220.831 376.745 211.259 381.381 201.505 386.055C201.253 371.725 201.47 356.821 201.484 342.449C222.016 330.263 235.21 323.232 259.8 320.697Z"/><path fill="#F7F7F6" d="M201.471 417.262C235.793 393.134 276.321 389.472 315.261 405.003C328.597 410.415 341.061 417.83 354.724 422.449C393.968 435.717 431.307 428.236 467.385 410.696C467.691 412.002 462.025 420.717 460.875 423C456.067 432.541 452.407 443.203 449.852 453.561C448.882 457.497 448.554 463.961 447.143 467.394C414.382 479.864 384.867 484.058 351.398 469.271C346.389 466.916 341.62 464.092 336.661 461.63C291.505 439.209 246.789 436.834 201.489 461.85L201.471 417.262Z"/><path fill="#F7F7F6" d="M255.861 547.694C259.013 547.094 269.093 547.314 272.538 547.433C289.411 548.067 305.938 552.414 320.94 560.163C333.889 566.741 344.105 573.58 358.491 577.603C400.866 589.452 435.638 581.715 472.96 561.982L473.077 574.186C473.143 583.261 473.635 592.525 466.446 599.448C458.43 607.166 449.078 606.122 439.021 605.943L284.749 605.734L242.108 605.971C230.639 606.039 216.868 608.152 208.15 599.625C199.816 591.475 201.278 580.137 201.388 569.585C217.239 557.509 236.062 549.945 255.861 547.694Z"/><path fill="#F7F7F6" d="M399.208 828.691C415.981 825.504 432.144 836.576 435.231 853.367C438.318 870.159 427.151 886.256 410.341 889.243C393.672 892.206 377.74 881.152 374.678 864.501C371.617 847.85 382.576 831.852 399.208 828.691Z"/><path d="M400.936 837.347C412.843 835.187 424.227 843.15 426.281 855.076C428.335 867.002 420.27 878.314 408.326 880.261C396.533 882.184 385.393 874.243 383.365 862.467C381.337 850.691 389.178 839.48 400.936 837.347Z"/><path fill="#F7F7F6" d="M331.134 810.172C345.39 808.53 356.21 812.07 367.44 820.601C365.419 822.867 362.976 825.285 360.843 827.493C359.71 826.535 358.535 825.627 357.322 824.771C334.492 808.414 299.363 825.006 306.068 856.182C307.766 864.158 312.593 871.12 319.468 875.506C327.939 880.841 337.846 881.028 347.303 878.777C353.047 877.191 356.733 874.829 361.257 871.15C363.313 872.859 364.872 874.409 366.758 876.275C353.318 892.119 327.131 892.894 311.028 881.059C302.825 875.015 297.399 865.923 295.974 855.834C292.647 832.1 307.609 813.343 331.134 810.172Z"/><path fill="#F7F7F6" d="M600.419 829.498L609.594 829.487C609.512 841.801 608.721 855.755 610.33 867.806C612.629 885.024 643.01 884.171 645.033 866.708C646.429 854.664 645.786 841.716 645.775 829.501L655.28 829.537C655.425 834.938 655.304 840.945 655.301 846.387C655.274 860.419 655.485 874.391 655.31 888.438L646.318 888.442L646.446 878.808C645.559 880.017 644.581 881.195 643.572 882.274C635.114 891.276 615.341 891.32 606.858 882.375C601.596 876.825 600.279 869.792 600.294 862.424C600.315 851.451 600.358 840.473 600.419 829.498Z"/><path fill="#F7F7F6" d="M480.342 828.701C507.55 827.636 507.121 848.019 507.057 867.796L506.974 888.452L497.582 888.424C497.38 876.39 498.467 861.591 496.903 849.775C495.297 837.642 482.888 836.013 472.459 838.32C458.971 844.414 460.562 857.571 460.579 869.971L460.631 888.296L451.43 888.307L451.463 829.462L460.611 829.475L460.541 837.89C467.016 830.576 471.04 829.605 480.342 828.701Z"/><path fill="#F7F7F6" d="M713.562 829.495L723.561 829.401C718.343 837.519 707.909 849.871 701.749 858.253C705.616 862.656 721.234 882.778 723.783 887.437L723.495 888.037L721.975 888.241L714.158 888.378C707.838 880.16 702.488 872.363 696.383 864.194C690.823 872.351 685.081 880.382 679.161 888.282C675.736 888.35 672.208 888.325 668.773 888.345C675.895 878.123 683.914 868.354 691.577 858.512C684.904 849.484 676.1 838.683 670.211 829.509L680.154 829.445C685.63 837.067 691.195 844.625 696.849 852.117C702.168 844.393 707.742 836.848 713.562 829.495Z"/><path fill="#F7F7F6" d="M545.951 805.123C552.76 804.692 555.491 804.765 561.826 807.456L558.389 814.804C553.423 812.907 546.778 811.366 542.502 815.783C538.852 819.554 539.511 824.403 539.664 829.245C545.271 829.219 550.878 829.248 556.485 829.33L556.487 836.515L539.803 836.497C539.496 848.352 539.762 861.441 539.755 873.393L539.699 888.3C536.595 888.334 533.409 888.276 530.297 888.256C530.037 871.237 530.28 853.599 530.283 836.531L519.427 836.513L519.467 829.113L530.415 829.096C530.416 816.32 531.231 807.821 545.951 805.123Z"/><path fill="#F7F7F6" d="M569.335 805.632L578.933 805.613L578.9 888.492L569.451 888.48L569.335 805.632Z"/></svg>