<?xml version="1.0" encoding="utf-8" ?><svg xmlns="http://www.w3.org/2000/svg" xmlns:xlink="http://www.w3.org/1999/xlink" width="1024" height="1024" viewBox="0 0 1024 1024"><path fill="#FBFAF9" d="M0 0L1024 0L1024 1024L0 1024L0 0Z"/><path d="M553.709 149.25L705.498 149.465L750.787 149.389C763.168 149.363 777.539 148.71 789.475 151.219C811.091 155.762 830.104 165.262 845.834 180.817C860.185 194.983 870.348 212.836 875.202 232.408C879.281 249.131 878.034 274.981 878.024 293.17L878.18 361.359L878.026 646.629L878.049 731.947C878.045 749.481 878.983 774.556 875.896 790.931C871.833 811.788 861.668 830.968 846.69 846.04C831.779 861.272 812.675 871.726 791.808 876.075C778.507 878.854 761.9 878.173 748.075 878.182L699.501 878.305L475.005 878.342L321.388 878.365L279.661 878.352C265.499 878.382 248.158 879.041 234.603 875.908C215.346 871.458 195.572 860.815 181.697 846.677C157.999 822.53 149.572 796.765 149.43 763.839L149.459 394.168L149.365 298.337C149.356 282.339 148.586 253.921 151.176 239.224C155.114 217.518 165.598 197.537 181.221 181.962C196.53 166.416 216.132 155.797 237.516 151.466C251.468 148.558 269.985 149.385 284.718 149.401L339.052 149.422L553.709 149.25Z"/><path fill="#FBFAF9" d="M513.399 150.93C517.656 151.349 571.917 197.228 582.419 203.845C600.04 204.688 622.479 204.017 640.489 204.016L751.37 203.988C773.514 203.964 789.844 204.427 806.882 221.618C815.214 230.123 820.829 240.913 823.013 252.616C824.425 259.945 824.05 270.985 824.051 278.742L824.04 314.856L824.007 449.712C829.601 457.036 836.768 465.304 842.72 472.503C854.256 486.516 865.884 500.455 877.601 514.317C871.837 521.905 863.841 531.077 857.691 538.418C846.222 551.979 834.982 565.731 823.976 579.671C824.695 621.279 824.042 665.225 824.05 707.017L824.076 745.525C824.08 755 824.522 767.303 822.722 776.361C820.514 787.316 815.187 797.398 807.382 805.395C799.148 813.907 788.615 819.84 777.067 822.469C767.901 824.507 756.737 824.045 747.185 824.038L715.272 823.998C671.521 823.972 625.78 823.434 582.099 824.14C561.302 838.513 534.065 860.625 513.975 876.614L512.49 877.375C509.435 876.697 451.251 829.84 443.278 824.095C428.157 823.747 411.961 824.028 396.773 824.025L309.378 824.011L278.21 824.043C269.375 824.055 259.633 824.483 250.993 822.696C228.563 818.06 209.601 799.381 205.189 776.817C203.534 768.35 204.042 757.155 204.054 748.481L204.104 712.325L204.005 577.423C199.509 571.176 193.667 565.182 188.765 559.216C176.645 544.463 162.206 529.284 150.698 514.246C157.422 507.06 165.713 496.483 172.107 488.742C182.72 475.894 193.597 462.911 204.035 449.957L204.177 321.5L204.062 283.388C203.991 259.047 202.638 240.786 221.181 221.875C229.451 213.459 240.048 207.707 251.611 205.357C259.845 203.655 270.757 204.002 279.336 204.003L310.95 204.023C354.141 204.033 398.788 204.565 441.834 203.914C447.578 200.079 454.897 194.317 460.576 190.106C478.296 176.968 495.281 163.588 513.399 150.93Z"/><path d="M519.017 358.61C522.403 359.191 535.66 358.941 539.724 358.922C554.297 358.732 568.873 358.736 583.446 358.933L470.282 543.043L437.718 596.47C432.264 605.407 425.369 617.493 419.321 625.71C410.598 611.59 402.054 596.697 393.531 582.4C371.31 545.442 349.324 508.343 327.575 471.106L327.449 600.749C327.448 608.421 327.871 664.257 326.866 666.386L325.194 666.738C307.193 666.931 289.19 666.934 271.189 666.748C271.492 638.45 271.133 609.519 271.086 581.161L271.124 435.584C271.161 410.481 270.66 383.859 271.266 358.923C288.69 358.826 306.114 358.845 323.538 358.98C329.777 368.878 336.277 380.677 342.243 390.848L370.824 439.125C387.166 467.034 404.214 494.714 420.467 522.724C422.885 519.144 426.074 513.416 428.46 509.503L447.7 477.576L494.894 398.894C502.298 386.392 511.061 370.4 519.017 358.61Z"/><path d="M614.515 358.974C658.564 358.911 698.189 373.934 729.621 405.273C758.303 434.052 774.264 473.12 773.938 513.751C773.863 554.207 757.717 592.976 729.051 621.525C704.01 646.513 671.124 662.112 635.929 665.695C621.172 667.187 601.02 666.804 585.8 666.771L513.627 666.673L513.673 567.237L513.638 543.266C513.604 531.747 511.974 530.858 518.582 521.077C535.828 494.628 552.89 464.827 569.682 437.662C570.134 452.943 569.595 468.654 569.73 483.982C570.094 525.488 569.098 567.374 569.765 608.831L604.01 608.919C638.345 608.907 664.386 605.763 689.9 580.175C727.398 542.57 727.312 481.999 689.68 444.72C655.912 411.271 621.916 416.277 579.359 416.233C591.39 397.404 602.573 377.979 614.515 358.974Z"/></svg>